<?xml version="1.0" standalone="no"?>
<!DOCTYPE svg PUBLIC "-//W3C//DTD SVG 20010904//EN"
 "http://www.w3.org/TR/2001/REC-SVG-20010904/DTD/svg10.dtd">
<svg version="1.0" xmlns="http://www.w3.org/2000/svg"
 width="1240.000000pt" height="1240.000000pt" viewBox="0 0 1240.000000 1240.000000"
 preserveAspectRatio="xMidYMid meet">
<metadata>
Created by potrace 1.11, written by Peter Selinger 2001-2013
</metadata>
<g transform="translate(0.000000,1240.000000) scale(0.100000,-0.100000)"
fill="#000000" stroke="none">
<path d="M2690 10973 c-685 -49 -1106 -123 -1583 -279 -390 -128 -743 -301
-1024 -501 l-63 -44 0 -4153 0 -4152 26 -51 c29 -60 88 -117 148 -144 78 -35
186 -20 332 47 579 264 1347 468 2072 550 189 22 714 30 955 15 1037 -64 1925
-326 2521 -743 61 -43 118 -78 127 -78 9 0 54 23 100 50 163 98 513 258 753
345 606 219 1256 366 1860 421 261 24 759 18 1046 -12 763 -79 1352 -238 1919
-518 129 -64 136 -66 210 -66 59 0 87 6 126 24 57 26 118 89 146 150 18 40 19
152 19 4179 l0 4138 -150 98 c-637 420 -1497 665 -2529 722 -238 13 -835 7
-1016 -10 -725 -69 -1214 -180 -1715 -386 -222 -91 -414 -194 -632 -338 l-138
-90 -137 91 c-213 140 -376 226 -620 330 -246 106 -602 216 -853 266 -378 75
-682 115 -1037 136 -155 9 -750 11 -863 3z m7026 -1123 c499 -28 982 -106
1393 -223 l146 -42 3 -3237 2 -3237 -57 20 c-91 31 -341 94 -533 133 -675 137
-1445 165 -2085 76 -808 -112 -1724 -403 -2262 -716 l-123 -72 0 3234 0 3234
48 30 c78 50 409 214 540 269 654 273 1436 467 2127 526 187 16 566 18 801 5z"/>
</g>
</svg>
